# Blender 4.0.2
# www.blender.org
mtllib Queen.mtl
o Wasp
v -0.007959 -1.326897 -4.056606
v -1.963266 -0.588755 -1.240848
v 1.947347 -0.588756 -1.240848
v 1.240441 0.452671 -1.513855
v -0.007960 -0.512990 -3.517729
v -1.256359 0.452672 -1.513854
v -0.007960 0.289867 -0.407347
v 1.021098 -0.387848 1.621909
v -1.037016 -0.387848 1.621909
v -0.011335 -0.387848 -1.215046
v 1.521098 -0.703263 0.220217
v -1.537016 -0.703263 0.214399
v -1.037016 0.456355 0.576545
v -0.672121 0.566707 1.621909
v 0.656203 0.566708 1.621908
v 1.021098 0.456355 0.582364
v -0.011335 0.132616 -0.262668
v 0.714755 -0.327930 2.857251
v -0.007960 -0.188854 1.394755
v -0.730672 -0.327931 2.857251
v 0.714755 0.425689 3.050621
v -0.007960 0.621440 1.780803
v -0.730672 0.425689 3.050622
v -2.629633 0.783165 -3.073752
v -2.400041 0.357856 -2.851167
v -0.520658 0.420405 1.322134
v -0.652100 -0.201789 0.850052
v 2.752794 0.877215 -3.255230
v 2.420540 0.441195 -3.035968
v 0.647185 0.513827 1.069099
v 0.530603 -0.201789 0.539194
vn -0.0000 -0.9673 0.2536
vn -0.0000 0.9009 -0.4341
vn -0.5228 0.5299 0.6678
vn -0.7044 0.3919 -0.5919
vn 0.7215 0.3302 -0.6086
vn -0.0000 0.9893 0.1456
vn -0.0000 -0.6882 0.7255
vn 0.5228 0.5299 0.6678
vn -0.0004 -0.9758 0.2188
vn 0.0003 0.9945 -0.1051
vn 0.4803 0.4434 -0.7567
vn -0.0000 -0.0000 1.0000
vn -0.5335 0.7422 -0.4056
vn 0.8971 0.3429 0.2785
vn -0.9144 0.3149 0.2543
vn -0.0000 -0.9955 -0.0947
vn -0.0000 0.9883 0.1524
vn -0.0000 -0.2485 0.9686
vn -0.8859 0.1995 -0.4188
vn 0.8706 0.1223 -0.4766
vn -0.8982 -0.1291 0.4203
vn -0.8329 0.4105 -0.3711
vn -0.7215 0.3302 -0.6086
vn 0.7044 0.3919 -0.5919
vn 0.0004 -0.9766 -0.2151
vn -0.0000 -0.9756 0.2195
vn 0.9143 0.3145 0.2554
vn 0.5329 0.7425 -0.4058
vn -0.0000 0.9944 -0.1056
vn 0.0010 0.9334 -0.3588
vn -0.4797 0.4433 -0.7572
vn -0.8975 0.3431 0.2771
vn -0.8706 0.1223 -0.4766
vn 0.8859 0.1995 -0.4188
vn -0.8212 0.4480 -0.3535
vn -0.8836 -0.2808 0.3748
vt 0.000000 0.000000
vt 0.000000 1.000000
vt 1.000000 0.000000
vt 0.593105 0.406895
vt 1.000000 0.503866
vt 0.000000 0.505917
vt 1.000000 1.000000
vt 0.501640 0.000000
s 0
usemtl WaspYellow
f 1/1/1 3/2/1 2/3/1
f 5/1/2 6/3/2 4/2/2
f 2/3/3 7/4/3 6/3/3
f 2/3/4 5/1/4 1/1/4
f 3/2/5 5/1/5 4/2/5
f 6/3/6 7/4/6 4/2/6
f 7/4/7 2/3/7 3/2/7
f 4/2/8 7/4/8 3/2/8
f 12/5/9 11/6/9 9/7/9
f 14/7/10 16/6/10 13/5/10
f 11/6/11 17/8/11 16/6/11
f 8/2/12 14/7/12 9/7/12
f 12/5/13 17/8/13 10/8/13
f 8/2/14 16/6/14 15/2/14
f 9/7/15 13/5/15 12/5/15
f 18/1/16 20/7/16 19/3/16
f 21/1/17 22/3/17 23/7/17
f 20/7/18 21/1/18 23/7/18
f 20/7/19 22/3/19 19/3/19
f 18/1/20 22/3/20 21/1/20
f 2/3/23 6/3/23 5/1/23
f 3/2/24 1/1/24 5/1/24
f 10/8/25 11/6/25 12/5/25
f 11/6/26 8/2/26 9/7/26
f 8/2/27 11/6/27 16/6/27
f 11/6/28 10/8/28 17/8/28
f 15/2/29 16/6/29 14/7/29
f 16/6/30 17/8/30 13/5/30
f 12/5/31 13/5/31 17/8/31
f 9/7/32 14/7/32 13/5/32
f 20/7/33 23/7/33 22/3/33
f 20/7/18 18/1/18 21/1/18
f 18/1/34 19/3/34 22/3/34
f 8/2/12 15/2/12 14/7/12
usemtl WaspGrey
f 24/1/21 27/7/21 26/2/21
f 28/1/22 31/7/22 30/2/22
f 28/1/35 29/3/35 31/7/35
f 24/1/36 25/3/36 27/7/36
