# Blender 3.6.0
# www.blender.org
mtllib Food.mtl
o Food
v -0.176800 0.000000 0.176800
v 0.176800 0.000000 0.176800
v -0.176800 0.000000 -0.176800
v 0.176800 0.000000 -0.176800
v 0.000000 0.220000 0.000000
v 0.000000 -0.220000 0.000000
vn -0.0000 0.6264 -0.7795
vn -0.7795 -0.6264 -0.0000
vn -0.0000 -0.6264 0.7795
vn 0.7795 -0.6264 -0.0000
vn -0.0000 -0.6264 -0.7795
vn -0.7795 0.6264 -0.0000
vn -0.0000 0.6264 0.7795
vn 0.7795 0.6264 -0.0000
vt 1.000000 0.000000
vt 0.000000 0.000000
vt 1.000000 1.000000
vt 0.000000 1.000000
s 0
f 2/1/1 6/2/1 1/2/1
f 4/3/2 2/1/2 5/2/2
f 3/4/3 4/3/3 5/2/3
f 3/4/4 5/2/4 1/2/4
f 2/1/5 1/2/5 5/2/5
f 4/3/6 6/2/6 2/1/6
f 3/4/7 6/2/7 4/3/7
f 3/4/8 1/2/8 6/2/8
