# Blender v3.6.0 OBJ File: 'Wasp.blend'
# www.blender.org
mtllib Wasp.mtl
o Wasp
v -0.000000 -0.147628 0.853570
v 0.291061 0.000000 0.290418
v -0.291061 -0.000000 0.290418
v -0.199680 0.208285 0.345019
v -0.000000 0.015153 0.745794
v 0.199680 0.208285 0.345019
v 0.000000 0.175725 0.123718
v -0.205811 0.040182 -0.282133
v 0.205811 0.040182 -0.282133
v 0.000675 0.040182 0.285257
v -0.205811 0.040182 -0.001795
v 0.205811 0.040182 -0.000631
v 0.205811 0.209022 -0.073061
v 0.132832 0.231093 -0.282133
v -0.132832 0.231093 -0.282133
v -0.205811 0.209022 -0.074224
v 0.000675 0.144274 0.094782
v -0.144543 -0.009463 -0.600371
v 0.000000 0.079980 -0.236703
v 0.144543 -0.009463 -0.600371
v -0.144543 0.104913 -0.639045
v 0.000000 0.242039 -0.313912
v 0.144543 0.104912 -0.639045
v 0.388543 0.471980 0.655994
v 0.354321 0.408585 0.622816
v 0.102540 0.201832 -0.222179
v 0.128828 0.077393 -0.127762
v -0.413744 0.485999 0.683045
v -0.364219 0.421007 0.650362
v -0.131029 0.220517 -0.171571
v -0.107712 0.077393 -0.065590
vt 0.000000 0.000000
vt 0.000000 1.000000
vt 1.000000 0.000000
vt 0.000000 0.000000
vt 1.000000 0.000000
vt 0.000000 1.000000
vt 0.593105 0.406895
vt 1.000000 0.503866
vt 0.000000 0.505917
vt 1.000000 1.000000
vt 1.000000 1.000000
vt 0.000000 0.505917
vt 1.000000 0.503866
vt 0.501640 0.000000
vt 0.000000 1.000000
vt 0.501640 0.000000
vt 0.000000 1.000000
vt 0.000000 0.000000
vt 1.000000 1.000000
vt 1.000000 0.000000
vt 0.000000 0.000000
vt 1.000000 0.000000
vt 1.000000 1.000000
vt 0.000000 0.000000
vt 1.000000 1.000000
vt 0.000000 1.000000
vt 0.000000 0.000000
vt 1.000000 1.000000
vt 0.000000 1.000000
vt 1.000000 0.000000
vt 1.000000 0.000000
vn 0.0000 -0.9673 -0.2536
vn -0.0000 0.9009 0.4341
vn 0.6319 0.4438 -0.6354
vn 0.8000 0.3312 0.5003
vn -0.8243 0.2255 0.5193
vn -0.0000 0.9893 -0.1456
vn 0.0000 -0.6882 -0.7255
vn -0.6319 0.4438 -0.6354
vn 0.0000 -1.0000 0.0000
vn -0.0003 0.9945 0.1051
vn -0.5322 0.3338 0.7781
vn 0.0000 -0.0000 -1.0000
vn 0.5557 0.7296 0.3987
vn -0.8971 0.3429 -0.2785
vn 1.0000 0.0000 -0.0000
vn -0.0000 -0.9711 0.2388
vn 0.0000 0.9214 -0.3886
vn -0.0000 -0.3203 -0.9473
vn 0.9304 0.1577 0.3310
vn -0.9250 0.1217 0.3599
vn 0.8243 0.2255 0.5193
vn -0.8000 0.3312 0.5003
vn -1.0000 0.0000 0.0000
vn -0.5547 0.7301 0.3990
vn 0.0000 0.9944 0.1056
vn -0.0010 0.9334 0.3588
vn 0.5315 0.3339 0.7784
vn 0.8975 0.3431 -0.2771
vn 0.9250 0.1217 0.3599
vn -0.9304 0.1577 0.3310
vn 0.9530 -0.0277 -0.3018
vn 0.9277 0.3076 0.2113
vn 0.7935 0.6086 -0.0078
vn 0.8930 -0.4442 -0.0723
usemtl WaspYellow
s off
f 1/1/1 3/2/1 2/3/1
f 5/4/2 6/5/2 4/6/2
f 2/3/3 7/7/3 6/5/3
f 2/3/4 5/4/4 1/1/4
f 3/2/5 5/4/5 4/6/5
f 6/5/6 7/7/6 4/6/6
f 7/7/7 2/3/7 3/2/7
f 4/6/8 7/7/8 3/2/8
f 12/8/9 11/9/9 9/10/9
f 14/11/10 16/12/10 13/13/10
f 11/9/11 17/14/11 16/12/11
f 8/15/12 14/11/12 9/10/12
f 12/8/13 17/14/13 10/16/13
f 8/15/14 16/12/14 15/17/14
f 9/10/15 13/13/15 12/8/15
f 18/18/16 20/19/16 19/20/16
f 21/21/17 22/22/17 23/23/17
f 20/19/18 21/21/18 23/23/18
f 20/19/19 22/22/19 19/20/19
f 18/18/20 22/22/20 21/21/20
f 2/3/21 6/5/21 5/4/21
f 3/2/22 1/1/22 5/4/22
f 10/16/9 11/9/9 12/8/9
f 11/9/9 8/15/9 9/10/9
f 8/15/23 11/9/23 16/12/23
f 11/9/24 10/16/24 17/14/24
f 15/17/25 16/12/25 14/11/25
f 16/12/26 17/14/26 13/13/26
f 12/8/27 13/13/27 17/14/27
f 9/10/28 14/11/28 13/13/28
f 20/19/29 23/23/29 22/22/29
f 20/19/18 18/18/18 21/21/18
f 18/18/30 19/20/30 22/22/30
f 8/15/12 15/17/12 14/11/12
usemtl WaspGrey
f 24/24/31 27/25/31 26/26/31
f 28/27/32 31/28/32 30/29/32
f 28/27/33 29/30/33 31/28/33
f 24/24/34 25/31/34 27/25/34
