v 0.000000 0.850217 -0.526432
v 0.000000 0.739009 -0.673696
v 0.000000 0.602635 -0.798017
v 0.000000 0.445738 -0.895163
v 0.000000 0.092268 -0.995734
v 0.000000 -0.092268 -0.995734
v 0.000000 -0.602635 -0.798017
v 0.035848 0.982973 -0.180219
v 0.070475 0.932472 -0.354300
v 0.102702 0.850217 -0.516317
v 0.131431 0.739009 -0.660751
v 0.155685 0.602635 -0.782683
v 0.174638 0.445738 -0.877963
v 0.187643 0.273663 -0.943344
v 0.194258 0.092268 -0.976601
v 0.194258 -0.092268 -0.976601
v 0.187643 -0.273663 -0.943344
v 0.174638 -0.445738 -0.877963
v 0.155685 -0.602635 -0.782683
v 0.131431 -0.739009 -0.660751
v 0.102702 -0.850217 -0.516317
v 0.070475 -0.932472 -0.354300
v 0.035848 -0.982973 -0.180219
v 0.070318 0.982973 -0.169762
v 0.138241 0.932472 -0.333744
v 0.201457 0.850217 -0.486360
v 0.257812 0.739009 -0.622414
v 0.305388 0.602635 -0.737272
v 0.342564 0.445738 -0.827023
v 0.368075 0.273663 -0.888611
v 0.381051 0.092268 -0.919938
v 0.381051 -0.092268 -0.919938
v 0.368075 -0.273663 -0.888611
v 0.342564 -0.445738 -0.827023
v 0.305388 -0.602635 -0.737272
v 0.257812 -0.739009 -0.622414
v 0.201457 -0.850217 -0.486360
v 0.138241 -0.932472 -0.333744
v 0.070318 -0.982973 -0.169762
v 0.102086 0.982973 -0.152782
v 0.200695 0.932472 -0.300361
v 0.292470 0.850217 -0.437712
v 0.374285 0.739009 -0.560157
v 0.443355 0.602635 -0.663527
v 0.497326 0.445738 -0.744301
v 0.534362 0.273663 -0.799729
v 0.553200 0.092268 -0.827923
v 0.553200 -0.092268 -0.827923
v 0.534362 -0.273663 -0.799729
v 0.497326 -0.445738 -0.744301
v 0.443355 -0.602635 -0.663527
v 0.374285 -0.739009 -0.560157
v 0.292470 -0.850217 -0.437712
v 0.200695 -0.932472 -0.300361
v 0.102086 -0.982973 -0.152782
v 0.129931 0.982973 -0.129931
v 0.255436 0.932472 -0.255436
v 0.372244 0.850217 -0.372244
v 0.476375 0.739009 -0.476375
v 0.564283 0.602635 -0.564283
v 0.632976 0.445738 -0.632976
v 0.680113 0.273663 -0.680113
v 0.704090 0.092268 -0.704090
v 0.704090 -0.092268 -0.704090
v 0.680113 -0.273663 -0.680113
v 0.632976 -0.445738 -0.632976
v 0.564283 -0.602635 -0.564283
v 0.476375 -0.739009 -0.476375
v 0.372244 -0.850217 -0.372244
v 0.255436 -0.932472 -0.255436
v 0.129931 -0.982973 -0.129931
v 0.152782 0.982973 -0.102086
v 0.300361 0.932472 -0.200695
v 0.437712 0.850217 -0.292470
v 0.560157 0.739009 -0.374285
v 0.663527 0.602635 -0.443354
v 0.744301 0.445738 -0.497326
v 0.799729 0.273663 -0.534362
v 0.827923 0.092268 -0.553200
v 0.827923 -0.092268 -0.553200
v 0.799729 -0.273663 -0.534362
v 0.744301 -0.445738 -0.497326
v 0.663527 -0.602635 -0.443354
v 0.560157 -0.739009 -0.374285
v 0.437712 -0.850217 -0.292470
v 0.300361 -0.932472 -0.200695
v 0.152782 -0.982973 -0.102086
v 0.169762 0.982973 -0.070318
v 0.333744 0.932472 -0.138241
v 0.486360 0.850217 -0.201457
v 0.622414 0.739009 -0.257812
v 0.737272 0.602635 -0.305388
v 0.827023 0.445738 -0.342564
v 0.888611 0.273663 -0.368075
v 0.919938 0.092268 -0.381051
v 0.919938 -0.092268 -0.381051
v 0.888611 -0.273663 -0.368075
v 0.827023 -0.445738 -0.342564
v 0.737272 -0.602635 -0.305388
v 0.622414 -0.739009 -0.257812
v 0.486360 -0.850217 -0.201457
v 0.333744 -0.932472 -0.138241
v 0.169762 -0.982973 -0.070318
v 0.180219 0.982973 -0.035848
v 0.354300 0.932472 -0.070475
v 0.516317 0.850217 -0.102702
v 0.660751 0.739009 -0.131431
v 0.782683 0.602635 -0.155685
v 0.877963 0.445738 -0.174638
v 0.943344 0.273663 -0.187643
v 0.976601 0.092268 -0.194258
v 0.976601 -0.092268 -0.194258
v 0.943344 -0.273663 -0.187643
v 0.877963 -0.445738 -0.174638
v 0.782683 -0.602635 -0.155685
v 0.660751 -0.739009 -0.131431
v 0.516317 -0.850217 -0.102702
v 0.354300 -0.932472 -0.070475
v 0.180219 -0.982973 -0.035848
v 0.183749 0.982973 -0.000000
v 0.361242 0.932472 0.000000
v 0.526432 0.850217 0.000000
v 0.673696 0.739009 0.000000
v 0.798017 0.602635 0.000000
v 0.895163 0.445738 0.000000
v 0.961825 0.273663 0.000000
v 0.995734 0.092268 0.000000
v 0.995734 -0.092268 0.000000
v 0.961825 -0.273663 0.000000
v 0.895163 -0.445738 0.000000
v 0.798017 -0.602635 0.000000
v 0.673696 -0.739009 0.000000
v 0.526432 -0.850217 0.000000
v 0.361242 -0.932472 0.000000
v 0.183749 -0.982973 -0.000000
v 0.180219 0.982973 0.035848
v 0.354300 0.932472 0.070475
v 0.516317 0.850217 0.102702
v 0.660751 0.739009 0.131432
v 0.782683 0.602635 0.155685
v 0.877963 0.445738 0.174638
v 0.943344 0.273663 0.187643
v 0.976601 0.092268 0.194258
v 0.976601 -0.092268 0.194258
v 0.943344 -0.273663 0.187643
v 0.877963 -0.445738 0.174638
v 0.782683 -0.602635 0.155685
v 0.660751 -0.739009 0.131432
v 0.516317 -0.850217 0.102702
v 0.354300 -0.932472 0.070475
v 0.180219 -0.982973 0.035848
v 0.169762 0.982973 0.070318
v 0.333744 0.932472 0.138241
v 0.486360 0.850217 0.201457
v 0.622414 0.739009 0.257812
v 0.737271 0.602635 0.305388
v 0.827023 0.445738 0.342564
v 0.888611 0.273663 0.368075
v 0.919938 0.092268 0.381051
v 0.919938 -0.092268 0.381051
v 0.888611 -0.273663 0.368075
v 0.827023 -0.445738 0.342564
v 0.737271 -0.602635 0.305388
v 0.622414 -0.739009 0.257812
v 0.486360 -0.850217 0.201457
v 0.333744 -0.932472 0.138241
v 0.169762 -0.982973 0.070318
v 0.152782 0.982973 0.102086
v 0.300361 0.932472 0.200695
v 0.437712 0.850217 0.292470
v 0.560157 0.739009 0.374285
v 0.663527 0.602635 0.443354
v 0.744301 0.445738 0.497326
v 0.799729 0.273663 0.534362
v 0.827922 0.092268 0.553200
v 0.827922 -0.092268 0.553200
v 0.799729 -0.273663 0.534362
v 0.744301 -0.445738 0.497326
v 0.663527 -0.602635 0.443354
v 0.560157 -0.739009 0.374285
v 0.437712 -0.850217 0.292470
v 0.300361 -0.932472 0.200695
v 0.152782 -0.982973 0.102086
v 0.129930 0.982973 0.129930
v 0.255436 0.932472 0.255436
v 0.372244 0.850217 0.372244
v 0.476375 0.739009 0.476375
v 0.564283 0.602635 0.564283
v 0.632976 0.445738 0.632976
v 0.680113 0.273663 0.680113
v 0.704090 0.092268 0.704090
v 0.704090 -0.092268 0.704090
v 0.680113 -0.273663 0.680113
v 0.632976 -0.445738 0.632976
v 0.564283 -0.602635 0.564283
v 0.476375 -0.739009 0.476375
v 0.372244 -0.850217 0.372244
v 0.255436 -0.932472 0.255436
v 0.129930 -0.982973 0.129930
v 0.102086 0.982973 0.152782
v 0.200695 0.932472 0.300361
v 0.292470 0.850217 0.437712
v 0.374285 0.739009 0.560157
v 0.443354 0.602635 0.663527
v 0.497326 0.445738 0.744301
v 0.534361 0.273663 0.799729
v 0.553200 0.092268 0.827922
v 0.553200 -0.092268 0.827922
v 0.534361 -0.273663 0.799729
v 0.497326 -0.445738 0.744301
v 0.443354 -0.602635 0.663527
v 0.374285 -0.739009 0.560157
v 0.292470 -0.850217 0.437712
v 0.200695 -0.932472 0.300361
v 0.102086 -0.982973 0.152782
v 0.070318 0.982973 0.169762
v 0.138241 0.932472 0.333744
v 0.201457 0.850217 0.486360
v 0.257812 0.739009 0.622414
v 0.305388 0.602635 0.737271
v 0.342564 0.445738 0.827023
v 0.368075 0.273663 0.888611
v 0.381051 0.092268 0.919938
v 0.381051 -0.092268 0.919938
v 0.368075 -0.273663 0.888611
v 0.342564 -0.445738 0.827023
v 0.305388 -0.602635 0.737271
v 0.257812 -0.739009 0.622414
v 0.201457 -0.850217 0.486360
v 0.138241 -0.932472 0.333744
v 0.070318 -0.982973 0.169762
v 0.035848 0.982973 0.180219
v 0.070475 0.932472 0.354300
v 0.102702 0.850217 0.516317
v 0.131431 0.739009 0.660751
v 0.155685 0.602635 0.782683
v 0.174638 0.445738 0.877963
v 0.187643 0.273663 0.943344
v 0.194258 0.092268 0.976601
v 0.194258 -0.092268 0.976601
v 0.187643 -0.273663 0.943344
v 0.174638 -0.445738 0.877963
v 0.155685 -0.602635 0.782683
v 0.131431 -0.739009 0.660751
v 0.102702 -0.850217 0.516317
v 0.070475 -0.932472 0.354300
v 0.035848 -0.982973 0.180219
v 0.000000 0.982973 0.183749
v -0.000000 0.932472 0.361242
v -0.000000 0.850217 0.526432
v -0.000000 0.739009 0.673696
v -0.000000 0.602635 0.798017
v -0.000000 0.445738 0.895163
v -0.000000 0.273663 0.961825
v -0.000000 0.092268 0.995734
v -0.000000 -0.092268 0.995734
v -0.000000 -0.273663 0.961825
v -0.000000 -0.445738 0.895163
v -0.000000 -0.602635 0.798017
v -0.000000 -0.739009 0.673696
v -0.000000 -0.850217 0.526432
v -0.000000 -0.932472 0.361242
v 0.000000 -0.982973 0.183749
v -0.035848 0.982973 0.180219
v -0.070475 0.932472 0.354300
v -0.102702 0.850217 0.516317
v -0.131432 0.739009 0.660751
v -0.155685 0.602635 0.782683
v -0.174638 0.445738 0.877963
v -0.187643 0.273663 0.943344
v -0.194258 0.092268 0.976601
v -0.194258 -0.092268 0.976601
v -0.187643 -0.273663 0.943344
v -0.174638 -0.445738 0.877963
v -0.155685 -0.602635 0.782683
v -0.131432 -0.739009 0.660751
v -0.102702 -0.850217 0.516317
v -0.070475 -0.932472 0.354300
v -0.035848 -0.982973 0.180219
v -0.070318 0.982973 0.169762
v -0.138241 0.932472 0.333744
v -0.201457 0.850217 0.486360
v -0.257812 0.739009 0.622414
v -0.305388 0.602635 0.737271
v -0.342564 0.445738 0.827023
v -0.368075 0.273663 0.888611
v -0.381051 0.092268 0.919938
v -0.381051 -0.092268 0.919938
v -0.368075 -0.273663 0.888611
v -0.342564 -0.445738 0.827023
v -0.305388 -0.602635 0.737271
v -0.257812 -0.739009 0.622414
v -0.201457 -0.850217 0.486360
v -0.138241 -0.932472 0.333744
v -0.070318 -0.982973 0.169762
v 0.000000 -1.000000 0.000000
v -0.102086 0.982973 0.152782
v -0.200695 0.932472 0.300361
v -0.292470 0.850217 0.437712
v -0.374285 0.739009 0.560157
v -0.443354 0.602635 0.663526
v -0.497326 0.445738 0.744301
v -0.534361 0.273663 0.799728
v -0.553200 0.092268 0.827922
v -0.553200 -0.092268 0.827922
v -0.534361 -0.273663 0.799728
v -0.497326 -0.445738 0.744301
v -0.443354 -0.602635 0.663526
v -0.374285 -0.739009 0.560157
v -0.292470 -0.850217 0.437712
v -0.200695 -0.932472 0.300361
v -0.102086 -0.982973 0.152782
v -0.129930 0.982973 0.129930
v -0.255436 0.932472 0.255436
v -0.372243 0.850217 0.372243
v -0.476375 0.739009 0.476375
v -0.564283 0.602635 0.564283
v -0.632976 0.445738 0.632976
v -0.680113 0.273663 0.680113
v -0.704090 0.092268 0.704090
v -0.704090 -0.092268 0.704090
v -0.680113 -0.273663 0.680113
v -0.632976 -0.445738 0.632976
v -0.564283 -0.602635 0.564283
v -0.476375 -0.739009 0.476375
v -0.372243 -0.850217 0.372243
v -0.255436 -0.932472 0.255436
v -0.129930 -0.982973 0.129930
v -0.152782 0.982973 0.102086
v -0.300361 0.932472 0.200695
v -0.437712 0.850217 0.292470
v -0.560157 0.739009 0.374285
v -0.663527 0.602635 0.443354
v -0.744301 0.445738 0.497326
v -0.799728 0.273663 0.534361
v -0.827922 0.092268 0.553200
v -0.827922 -0.092268 0.553200
v -0.799728 -0.273663 0.534361
v -0.744301 -0.445738 0.497326
v -0.663527 -0.602635 0.443354
v -0.560157 -0.739009 0.374285
v -0.437712 -0.850217 0.292470
v -0.300361 -0.932472 0.200695
v -0.152782 -0.982973 0.102086
v -0.169762 0.982973 0.070318
v -0.333744 0.932472 0.138241
v -0.486360 0.850217 0.201457
v -0.622414 0.739009 0.257812
v -0.737271 0.602635 0.305388
v -0.827023 0.445738 0.342564
v -0.888611 0.273663 0.368074
v -0.919938 0.092268 0.381051
v -0.919938 -0.092268 0.381051
v -0.888611 -0.273663 0.368074
v -0.827023 -0.445738 0.342564
v -0.737271 -0.602635 0.305388
v -0.622414 -0.739009 0.257812
v -0.486360 -0.850217 0.201457
v -0.333744 -0.932472 0.138241
v -0.169762 -0.982973 0.070318
v 0.000000 1.000000 0.000000
v -0.180219 0.982973 0.035848
v -0.354300 0.932472 0.070475
v -0.516317 0.850217 0.102702
v -0.660751 0.739009 0.131431
v -0.782683 0.602635 0.155685
v -0.877963 0.445738 0.174638
v -0.943344 0.273663 0.187643
v -0.976601 0.092268 0.194258
v -0.976601 -0.092268 0.194258
v -0.943344 -0.273663 0.187643
v -0.877963 -0.445738 0.174638
v -0.782683 -0.602635 0.155685
v -0.660751 -0.739009 0.131431
v -0.516317 -0.850217 0.102702
v -0.354300 -0.932472 0.070475
v -0.180219 -0.982973 0.035848
v -0.183749 0.982973 -0.000000
v -0.361241 0.932472 -0.000000
v -0.526432 0.850217 -0.000000
v -0.673695 0.739009 -0.000000
v -0.798017 0.602635 -0.000000
v -0.895163 0.445738 -0.000000
v -0.961825 0.273663 -0.000000
v -0.995733 0.092268 -0.000000
v -0.995733 -0.092268 -0.000000
v -0.961825 -0.273663 -0.000000
v -0.895163 -0.445738 -0.000000
v -0.798017 -0.602635 -0.000000
v -0.673695 -0.739009 -0.000000
v -0.526432 -0.850217 -0.000000
v -0.361241 -0.932472 -0.000000
v -0.183749 -0.982973 -0.000000
v -0.180219 0.982973 -0.035848
v -0.354300 0.932472 -0.070475
v -0.516316 0.850217 -0.102702
v -0.660751 0.739009 -0.131432
v -0.782683 0.602635 -0.155685
v -0.877963 0.445738 -0.174638
v -0.943344 0.273663 -0.187643
v -0.976601 0.092268 -0.194258
v -0.976601 -0.092268 -0.194258
v -0.943344 -0.273663 -0.187643
v -0.877963 -0.445738 -0.174638
v -0.782683 -0.602635 -0.155685
v -0.660751 -0.739009 -0.131432
v -0.516316 -0.850217 -0.102702
v -0.354300 -0.932472 -0.070475
v -0.180219 -0.982973 -0.035848
v -0.169762 0.982973 -0.070318
v -0.333743 0.932472 -0.138241
v -0.486359 0.850217 -0.201457
v -0.622413 0.739009 -0.257812
v -0.737271 0.602635 -0.305388
v -0.827023 0.445738 -0.342564
v -0.888610 0.273663 -0.368075
v -0.919938 0.092268 -0.381051
v -0.919938 -0.092268 -0.381051
v -0.888610 -0.273663 -0.368075
v -0.827023 -0.445738 -0.342564
v -0.737271 -0.602635 -0.305388
v -0.622413 -0.739009 -0.257812
v -0.486359 -0.850217 -0.201457
v -0.333743 -0.932472 -0.138241
v -0.169762 -0.982973 -0.070318
v -0.152782 0.982973 -0.102086
v -0.300361 0.932472 -0.200695
v -0.437712 0.850217 -0.292470
v -0.560157 0.739009 -0.374285
v -0.663526 0.602635 -0.443354
v -0.744301 0.445738 -0.497326
v -0.799728 0.273663 -0.534361
v -0.827922 0.092268 -0.553200
v -0.827922 -0.092268 -0.553200
v -0.799728 -0.273663 -0.534361
v -0.744301 -0.445738 -0.497326
v -0.663526 -0.602635 -0.443354
v -0.560157 -0.739009 -0.374285
v -0.437712 -0.850217 -0.292470
v -0.300361 -0.932472 -0.200695
v -0.152782 -0.982973 -0.102086
v -0.129930 0.982973 -0.129930
v -0.255436 0.932472 -0.255436
v -0.372243 0.850217 -0.372243
v -0.476375 0.739009 -0.476375
v -0.564283 0.602635 -0.564283
v -0.632976 0.445738 -0.632976
v -0.680113 0.273663 -0.680113
v -0.704090 0.092268 -0.704090
v -0.704090 -0.092268 -0.704090
v -0.680113 -0.273663 -0.680113
v -0.632976 -0.445738 -0.632976
v -0.564283 -0.602635 -0.564283
v -0.476375 -0.739009 -0.476375
v -0.372243 -0.850217 -0.372243
v -0.255436 -0.932472 -0.255436
v -0.129930 -0.982973 -0.129930
v -0.102086 0.982973 -0.152782
v -0.200695 0.932472 -0.300361
v -0.292470 0.850217 -0.437712
v -0.374285 0.739009 -0.560157
v -0.443354 0.602635 -0.663526
v -0.497326 0.445738 -0.744301
v -0.534361 0.273663 -0.799728
v -0.553200 0.092268 -0.827922
v -0.553200 -0.092268 -0.827922
v -0.534361 -0.273663 -0.799728
v -0.497326 -0.445738 -0.744301
v -0.443354 -0.602635 -0.663526
v -0.374285 -0.739009 -0.560157
v -0.292470 -0.850217 -0.437712
v -0.200695 -0.932472 -0.300361
v -0.102086 -0.982973 -0.152782
v -0.070318 0.982973 -0.169762
v -0.138241 0.932472 -0.333744
v -0.201457 0.850217 -0.486360
v -0.257812 0.739009 -0.622413
v -0.305387 0.602635 -0.737271
v -0.342564 0.445738 -0.827023
v -0.368074 0.273663 -0.888610
v -0.381050 0.092268 -0.919938
v -0.381050 -0.092268 -0.919938
v -0.368074 -0.273663 -0.888610
v -0.342564 -0.445738 -0.827023
v -0.305387 -0.602635 -0.737271
v -0.257812 -0.739009 -0.622413
v -0.201457 -0.850217 -0.486360
v -0.138241 -0.932472 -0.333744
v -0.070318 -0.982973 -0.169762
v -0.035848 0.982973 -0.180219
v -0.070475 0.932472 -0.354300
v -0.102702 0.850217 -0.516316
v -0.131431 0.739009 -0.660751
v -0.155685 0.602635 -0.782683
v -0.174637 0.445738 -0.877963
v -0.187643 0.273663 -0.943344
v -0.194258 0.092268 -0.976601
v -0.194258 -0.092268 -0.976601
v -0.187643 -0.273663 -0.943344
v -0.174637 -0.445738 -0.877963
v -0.155685 -0.602635 -0.782683
v -0.131431 -0.739009 -0.660751
v -0.102702 -0.850217 -0.516316
v -0.070475 -0.932472 -0.354300
v -0.035848 -0.982973 -0.180219
v 0.000000 0.982973 -0.183749
v 0.000000 0.932472 -0.361241
v 0.000000 0.273663 -0.961825
v 0.000000 -0.273663 -0.961825
v 0.000000 -0.445738 -0.895163
v 0.000000 -0.739009 -0.673695
v 0.000000 -0.850217 -0.526432
v 0.000000 -0.932472 -0.361241
v 0.000000 -0.982973 -0.183749
s 0
f 1 507 9 10
f 510 509 17 18
f 3 2 11 12
f 511 7 19 20
f 508 4 13 14
f 513 512 21 22
f 506 361 8
f 6 5 15 16
f 296 514 23
f 8 361 24
f 16 15 31 32
f 296 23 39
f 10 9 25 26
f 18 17 33 34
f 12 11 27 28
f 20 19 35 36
f 14 13 29 30
f 22 21 37 38
f 26 25 41 42
f 34 33 49 50
f 28 27 43 44
f 36 35 51 52
f 30 29 45 46
f 38 37 53 54
f 24 361 40
f 32 31 47 48
f 296 39 55
f 44 43 59 60
f 52 51 67 68
f 46 45 61 62
f 54 53 69 70
f 40 361 56
f 48 47 63 64
f 296 55 71
f 42 41 57 58
f 50 49 65 66
f 62 61 77 78
f 70 69 85 86
f 56 361 72
f 64 63 79 80
f 296 71 87
f 58 57 73 74
f 66 65 81 82
f 60 59 75 76
f 68 67 83 84
f 80 79 95 96
f 296 87 103
f 74 73 89 90
f 82 81 97 98
f 76 75 91 92
f 84 83 99 100
f 78 77 93 94
f 86 85 101 102
f 72 361 88
f 98 97 113 114
f 92 91 107 108
f 100 99 115 116
f 94 93 109 110
f 102 101 117 118
f 88 361 104
f 96 95 111 112
f 296 103 119
f 90 89 105 106
f 116 115 131 132
f 110 109 125 126
f 118 117 133 134
f 104 361 120
f 112 111 127 128
f 296 119 135
f 106 105 121 122
f 114 113 129 130
f 108 107 123 124
f 134 133 149 150
f 120 361 136
f 128 127 143 144
f 296 135 151
f 122 121 137 138
f 130 129 145 146
f 124 123 139 140
f 132 131 147 148
f 126 125 141 142
f 296 151 167
f 138 137 153 154
f 146 145 161 162
f 140 139 155 156
f 148 147 163 164
f 142 141 157 158
f 150 149 165 166
f 136 361 152
f 144 143 159 160
f 156 155 171 172
f 164 163 179 180
f 158 157 173 174
f 166 165 181 182
f 152 361 168
f 160 159 175 176
f 296 167 183
f 154 153 169 170
f 162 161 177 178
f 174 173 189 190
f 182 181 197 198
f 168 361 184
f 176 175 191 192
f 296 183 199
f 170 169 185 186
f 178 177 193 194
f 172 171 187 188
f 180 179 195 196
f 184 361 200
f 192 191 207 208
f 296 199 215
f 186 185 201 202
f 194 193 209 210
f 188 187 203 204
f 196 195 211 212
f 190 189 205 206
f 198 197 213 214
f 202 201 217 218
f 210 209 225 226
f 204 203 219 220
f 212 211 227 228
f 206 205 221 222
f 214 213 229 230
f 200 361 216
f 208 207 223 224
f 296 215 231
f 220 219 235 236
f 228 227 243 244
f 222 221 237 238
f 230 229 245 246
f 216 361 232
f 224 223 239 240
f 296 231 247
f 218 217 233 234
f 226 225 241 242
f 238 237 253 254
f 246 245 261 262
f 232 361 248
f 240 239 255 256
f 296 247 263
f 234 233 249 250
f 242 241 257 258
f 236 235 251 252
f 244 243 259 260
f 248 361 264
f 256 255 271 272
f 296 263 279
f 250 249 265 266
f 258 257 273 274
f 252 251 267 268
f 260 259 275 276
f 254 253 269 270
f 262 261 277 278
f 266 265 281 282
f 274 273 289 290
f 268 267 283 284
f 276 275 291 292
f 270 269 285 286
f 278 277 293 294
f 264 361 280
f 272 271 287 288
f 296 279 295
f 284 283 300 301
f 292 291 308 309
f 286 285 302 303
f 294 293 310 311
f 280 361 297
f 288 287 304 305
f 296 295 312
f 282 281 298 299
f 290 289 306 307
f 303 302 318 319
f 311 310 326 327
f 297 361 313
f 305 304 320 321
f 296 312 328
f 299 298 314 315
f 307 306 322 323
f 301 300 316 317
f 309 308 324 325
f 321 320 336 337
f 296 328 344
f 315 314 330 331
f 323 322 338 339
f 317 316 332 333
f 325 324 340 341
f 319 318 334 335
f 327 326 342 343
f 313 361 329
f 339 338 354 355
f 333 332 348 349
f 341 340 356 357
f 335 334 350 351
f 343 342 358 359
f 329 361 345
f 337 336 352 353
f 296 344 360
f 331 330 346 347
f 357 356 373 374
f 351 350 367 368
f 359 358 375 376
f 345 361 362
f 353 352 369 370
f 296 360 377
f 347 346 363 364
f 355 354 371 372
f 349 348 365 366
f 376 375 391 392
f 362 361 378
f 370 369 385 386
f 296 377 393
f 364 363 379 380
f 372 371 387 388
f 366 365 381 382
f 374 373 389 390
f 368 367 383 384
f 296 393 409
f 380 379 395 396
f 388 387 403 404
f 382 381 397 398
f 390 389 405 406
f 384 383 399 400
f 392 391 407 408
f 378 361 394
f 386 385 401 402
f 398 397 413 414
f 406 405 421 422
f 400 399 415 416
f 408 407 423 424
f 394 361 410
f 402 401 417 418
f 296 409 425
f 396 395 411 412
f 404 403 419 420
f 416 415 431 432
f 424 423 439 440
f 410 361 426
f 418 417 433 434
f 296 425 441
f 412 411 427 428
f 420 419 435 436
f 414 413 429 430
f 422 421 437 438
f 426 361 442
f 434 433 449 450
f 296 441 457
f 428 427 443 444
f 436 435 451 452
f 430 429 445 446
f 438 437 453 454
f 432 431 447 448
f 440 439 455 456
f 444 443 459 460
f 452 451 467 468
f 446 445 461 462
f 454 453 469 470
f 448 447 463 464
f 456 455 471 472
f 442 361 458
f 450 449 465 466
f 296 457 473
f 462 461 477 478
f 470 469 485 486
f 464 463 479 480
f 472 471 487 488
f 458 361 474
f 466 465 481 482
f 296 473 489
f 460 459 475 476
f 468 467 483 484
f 480 479 495 496
f 488 487 503 504
f 474 361 490
f 482 481 497 498
f 296 489 505
f 476 475 491 492
f 484 483 499 500
f 478 477 493 494
f 486 485 501 502
f 498 497 5 6
f 296 505 514
f 492 491 507 1
f 500 499 509 510
f 494 493 2 3
f 502 501 7 511
f 496 495 4 508
f 504 503 512 513
f 490 361 506
